<?xml version="1.0" encoding="UTF-8" standalone="no"?>
<!-- Generator: Adobe Illustrator 27.5.0, SVG Export Plug-In . SVG Version: 6.00 Build 0)  -->

<svg
   version="1.1"
   id="Layer_1"
   x="0px"
   y="0px"
   viewBox="0 0 1258.439 810.71264"
   xml:space="preserve"
   sodipodi:docname="28563541_background_flower_3_05.svg"
   width="332.96198mm"
   height="214.50105mm"
   inkscape:export-filename="basso-dx.svg"
   inkscape:export-xdpi="96"
   inkscape:export-ydpi="96"
   xmlns:inkscape="http://www.inkscape.org/namespaces/inkscape"
   xmlns:sodipodi="http://sodipodi.sourceforge.net/DTD/sodipodi-0.dtd"
   xmlns:xlink="http://www.w3.org/1999/xlink"
   xmlns="http://www.w3.org/2000/svg"
   xmlns:svg="http://www.w3.org/2000/svg"><defs
   id="defs49" /><sodipodi:namedview
   id="namedview49"
   pagecolor="#ffffff"
   bordercolor="#111111"
   borderopacity="1"
   inkscape:showpageshadow="0"
   inkscape:pageopacity="0"
   inkscape:pagecheckerboard="1"
   inkscape:deskcolor="#d1d1d1"
   inkscape:document-units="mm" />
<g
   id="g49"
   transform="matrix(1.6779186,0,0,1.6214254,-9.136027e-6,8.9847464e-7)">
	<defs
   id="defs1"><rect
     id="SVGID_1_"
     width="750"
     height="500"
     x="0"
     y="0" /></defs>
	<clipPath
   id="SVGID_00000036937076629608534370000008528879834881578904_">
		<use
   xlink:href="#SVGID_1_"
   style="overflow:visible"
   id="use1" />
	</clipPath>
	
		<rect
   style="display:inline;fill:#ffffff"
   width="750"
   height="500"
   clip-path="url(#SVGID_00000036937076629608534370000008528879834881578904_)"
   id="rect1"
   x="0"
   y="0" />
	<g
   style="display:none"
   clip-path="url(#SVGID_00000036937076629608534370000008528879834881578904_)"
   id="g23">
		<g
   id="g1">
			<path
   style="fill:#42373b"
   d="m 48.018,506.499 c -0.402,0.528 -0.298,1.304 0.264,1.698 l 0.105,0.063 c 0.524,0.314 1.224,0.193 1.593,-0.327 52.199,-70.824 80.578,-68.67 123.529,-65.436 4.12,0.307 8.37,0.634 12.8,0.899 3.294,0.21 6.538,0.361 9.707,0.496 45.973,1.998 78.313,-2.449 78.657,-2.499 0.168,-0.042 0.335,-0.084 0.474,-0.172 0.402,-0.243 0.625,-0.708 0.553,-1.207 -0.092,-0.654 -0.712,-1.14 -1.379,-1.027 -0.054,-0.004 -1.228,0.147 -3.374,0.398 l -0.021,-0.013 c -9.422,1.072 -37.575,3.67 -74.7,2.081 -1.978,-0.076 -3.998,-0.177 -6.027,-0.311 -1.245,-0.063 -2.49,-0.126 -3.755,-0.202 -4.409,-0.252 -8.659,-0.58 -12.745,-0.895 -43.77,-3.296 -72.685,-5.459 -125.681,66.454 z"
   id="path1" />
		</g>
		<g
   id="g2">
			<path
   style="fill:#42373b"
   d="m 26.291,501.383 c 0.071,0.071 0.155,0.122 0.218,0.159 0.482,0.289 1.111,0.239 1.517,-0.201 2.125,-2.259 4.502,-5.079 7.231,-8.344 11.138,-13.238 27.927,-33.232 60.668,-55.11 33.177,-22.129 79.06,-3.882 94.273,3.253 3.193,1.518 5.033,2.537 5.117,2.587 0.23,0.138 0.469,0.168 0.7,0.163 0.398,-0.046 0.755,-0.26 0.968,-0.616 0.331,-0.599 0.105,-1.362 -0.473,-1.681 -0.021,-0.013 -0.105,-0.063 -0.285,-0.142 -4.019,-2.184 -50.211,-26.232 -88.483,-12.235 -0.868,0.306 -1.727,0.645 -2.565,0.997 -3.634,1.496 -7.176,3.36 -10.596,5.64 -33.051,22.062 -49.974,42.232 -61.175,55.575 -2.737,3.231 -5.081,6.043 -7.168,8.239 -0.466,0.492 -0.437,1.251 0.053,1.716 z"
   id="path2" />
		</g>
		<g
   id="g6">
			<path
   style="fill:#42373b"
   d="m 8.682,374.294 c -2.033,3.483 1.289,9.154 1.667,9.808 0.285,0.427 0.771,0.662 1.282,0.57 0.034,-0.008 3.6,-0.632 5.587,0.902 0.838,0.646 1.278,1.622 1.349,2.976 0.221,4.522 2.962,10.642 7.111,13.132 l 0.566,0.34 c 2.376,1.17 4.811,1.007 7.066,-0.519 1.375,-0.913 2.842,-1.743 4.292,-2.497 l 0.034,-0.008 c 1.765,-0.851 3.55,-1.546 5.248,-2.095 3.978,-1.261 7.544,-1.6 9.401,-0.657 2.615,1.342 4.598,-1.772 6.891,-5.355 3.027,-4.71 7.164,-11.177 13.921,-11.084 13.424,0.191 28.116,-6.811 38.108,-12.727 4.422,-2.619 6.241,-1.043 9.254,1.535 3.537,3.035 8.39,7.202 19.338,4.965 2.729,-0.557 5.742,-1.257 8.944,-1.985 19.268,-4.369 45.631,-10.35 55.521,1.429 1.898,2.251 4.354,5.521 7.208,9.314 5.091,6.761 11.633,15.476 19.343,24.236 0.101,0.117 0.201,0.235 0.302,0.352 11.138,12.642 24.716,25.352 39.812,32.446 l 0.021,0.013 c 1.383,0.688 2.783,1.3 4.199,1.836 4.254,1.698 8.621,2.923 13.08,3.518 22.418,3.109 37.079,1.334 44.767,-5.396 0.176,-0.151 0.319,-0.293 0.474,-0.457 4.028,-3.767 5.974,-8.956 5.954,-15.809 -0.045,-9.661 -8.653,-16.024 -18.652,-23.394 -7.011,-5.177 -14.965,-11.063 -20.752,-18.897 -11.1,-14.985 -21.875,-23.675 -28.807,-23.19 -2.469,0.172 -4.456,1.487 -5.743,3.822 -2.721,5.008 -6.405,4.165 -7.482,3.775 -1.953,-0.688 -3.244,-2.431 -2.954,-3.911 0.394,-1.987 -0.901,-4.246 -3.49,-6.199 -5.461,-4.104 -15.381,-5.954 -25.223,-0.859 -6.882,3.536 -10.298,2.769 -15.059,1.678 -4.857,-1.12 -10.888,-2.516 -22.456,0.231 -11.891,2.811 -17.05,-2.366 -22.514,-7.841 -4.488,-4.489 -9.127,-9.155 -17.48,-8.724 -6.87,0.38 -12.561,-2.152 -18.017,-4.6 -7.938,-3.539 -15.439,-6.901 -24.431,0.244 -2.884,2.288 -4.385,4.694 -4.532,7.313 -0.286,4.56 3.628,8.534 7.081,12.088 2.43,2.456 4.962,5.03 4.907,6.879 0.004,0.373 -0.105,0.935 -0.851,1.655 -0.189,0.172 -0.302,0.36 -0.352,0.587 -0.822,0.276 -1.698,0.691 -2.662,1.253 -9.716,5.741 -23.976,12.545 -36.809,12.367 -1.731,-0.013 -3.298,0.272 -4.711,0.821 -1.182,-1.735 -10.141,-14.352 -23.004,-13.579 -6.706,0.393 -12.364,2.412 -17.369,4.197 -4.925,1.747 -9.209,3.28 -13.626,3.137 -2.843,-0.108 -4.759,0.709 -5.752,2.364 z m 101.971,-21.398 c -3.088,-3.165 -6.604,-6.757 -6.403,-10.228 0.134,-1.886 1.317,-3.713 3.639,-5.54 7.813,-6.227 14.033,-3.435 21.895,0.087 5.469,2.428 11.688,5.22 19.153,4.798 7.243,-0.385 11.324,3.69 15.628,8.012 5.423,5.449 11.579,11.624 24.798,8.499 11.011,-2.626 16.74,-1.297 21.35,-0.24 4.87,1.099 9.049,2.068 16.719,-1.879 10.173,-5.267 19.003,-2.076 22.62,0.636 2.012,1.492 2.732,2.951 2.581,3.773 -0.524,2.678 1.424,5.558 4.538,6.686 3.147,1.12 7.54,0.45 10.441,-4.906 0.88,-1.609 2.117,-2.435 3.76,-2.56 5.918,-0.41 16.395,8.301 26.657,22.213 6.017,8.115 14.139,14.101 21.305,19.4 9.438,6.976 17.61,13.02 17.65,21.453 0.033,5.977 -1.598,10.499 -4.943,13.793 -0.214,0.214 -0.428,0.427 -0.662,0.629 -0.939,0.805 -1.983,1.546 -3.173,2.2 -7.767,4.345 -20.802,5.215 -39.641,2.601 -16.01,-2.199 -30.9,-12.389 -43.677,-24.533 -4.279,-4.079 -8.302,-8.346 -12.061,-12.626 -7.731,-8.773 -14.323,-17.547 -19.414,-24.308 -2.875,-3.806 -5.339,-7.109 -7.287,-9.419 -1.295,-1.547 -2.82,-2.804 -4.539,-3.836 -12.698,-7.621 -35.893,-2.361 -53.388,1.619 -3.19,0.708 -6.17,1.399 -8.898,1.956 -9.778,1.998 -13.747,-1.41 -17.242,-4.42 -1.903,-1.626 -3.755,-3.194 -6.224,-3.45 0.272,-0.549 0.407,-1.152 0.432,-1.764 0.047,-2.882 -2.697,-5.67 -5.614,-8.646 z M 10.79,375.531 c 0.503,-0.838 1.706,-1.228 3.554,-1.173 4.908,0.181 9.598,-1.508 14.557,-3.263 5.072,-1.802 10.323,-3.666 16.69,-4.063 10.86,-0.665 19.006,9.982 20.619,12.233 -4.07,2.46 -6.862,6.826 -9.092,10.305 -1.17,1.806 -3.09,4.815 -3.722,4.493 -4.702,-2.423 -14.804,0.92 -21.451,5.395 -1.517,1.056 -3.026,1.148 -4.61,0.368 -3.512,-1.794 -6.148,-7.424 -6.335,-11.384 -0.092,-2.079 -0.855,-3.705 -2.271,-4.812 -2.129,-1.677 -5.18,-1.627 -6.66,-1.489 -0.89,-1.702 -2.227,-4.984 -1.279,-6.61 z"
   id="path3" />
			<path
   style="fill:#b7b4a1"
   d="m 10.79,375.531 c -0.948,1.626 0.389,4.908 1.277,6.61 1.479,-0.138 4.531,-0.188 6.66,1.489 1.416,1.107 2.179,2.733 2.271,4.812 0.188,3.961 2.823,9.59 6.335,11.384 1.584,0.78 3.093,0.688 4.61,-0.368 6.648,-4.475 16.749,-7.818 21.451,-5.395 0.633,0.323 2.553,-2.686 3.722,-4.493 2.23,-3.478 5.022,-7.845 9.092,-10.305 -1.613,-2.251 -9.759,-12.898 -20.619,-12.233 -6.367,0.397 -11.618,2.261 -16.69,4.063 -4.958,1.755 -9.649,3.444 -14.557,3.263 -1.846,-0.055 -3.049,0.335 -3.552,1.173 z m 24.786,0.825 c 0.557,-0.549 1.232,-0.628 1.685,-0.528 0.658,0.138 1.09,0.796 0.918,1.463 -0.092,0.486 -0.469,0.83 -0.926,0.926 -0.172,0.381 -0.512,1.802 0.33,6.098 0.147,0.658 -0.298,1.303 -0.956,1.45 -0.31,0.042 -0.624,-0.004 -0.876,-0.155 -0.272,-0.163 -0.49,-0.465 -0.561,-0.822 -1.19,-6.043 -0.339,-7.699 0.386,-8.432 z"
   id="path4" />
			<path
   style="fill:#808274"
   d="m 244.888,417.787 c 12.777,12.144 27.667,22.335 43.677,24.533 18.839,2.614 31.874,1.744 39.641,-2.601 -11.924,0.824 -45.429,1.037 -77.635,-18.293 -1.907,-1.144 -3.789,-2.331 -5.683,-3.639 z"
   id="path5" />
			<path
   style="fill:#b7b4a1"
   d="m 104.25,342.669 c -0.202,3.47 3.314,7.063 6.403,10.228 2.917,2.976 5.662,5.764 5.615,8.643 -0.025,0.612 -0.16,1.215 -0.432,1.764 2.469,0.256 4.321,1.824 6.224,3.45 3.495,3.01 7.464,6.418 17.242,4.42 2.729,-0.557 5.709,-1.248 8.898,-1.956 17.495,-3.979 40.69,-9.24 53.388,-1.619 1.718,1.031 3.244,2.289 4.539,3.836 1.949,2.31 4.412,5.613 7.287,9.419 5.091,6.761 11.683,15.534 19.414,24.308 41.626,38.066 94.453,32.349 99.214,31.729 3.345,-3.294 4.976,-7.816 4.943,-13.793 -0.041,-8.433 -8.213,-14.478 -17.65,-21.453 -7.166,-5.299 -15.288,-11.285 -21.305,-19.4 -10.262,-13.912 -20.739,-22.623 -26.657,-22.213 -1.643,0.126 -2.88,0.951 -3.76,2.56 -2.901,5.356 -7.294,6.026 -10.441,4.906 -3.114,-1.128 -5.063,-4.008 -4.538,-6.686 0.151,-0.822 -0.57,-2.28 -2.581,-3.773 -3.617,-2.712 -12.447,-5.903 -22.62,-0.636 -7.67,3.947 -11.849,2.978 -16.719,1.879 -4.61,-1.057 -10.339,-2.386 -21.35,0.24 -13.22,3.125 -19.376,-3.05 -24.798,-8.499 -4.304,-4.322 -8.385,-8.396 -15.628,-8.012 -7.465,0.422 -13.684,-2.37 -19.153,-4.798 -7.862,-3.522 -14.082,-6.314 -21.895,-0.087 -2.323,1.829 -3.505,3.657 -3.64,5.543 z m 165.615,68.932 c 23.522,-9.083 48.922,14.228 49.995,15.242 0.503,0.444 0.52,1.224 0.054,1.714 -0.444,0.503 -1.224,0.52 -1.714,0.054 -0.256,-0.239 -25.37,-23.265 -47.447,-14.739 -0.373,0.147 -0.763,0.084 -1.077,-0.105 -0.209,-0.126 -0.402,-0.327 -0.503,-0.587 -0.247,-0.632 0.071,-1.353 0.692,-1.579 z m -3.922,-9.85 c 13.326,-11.184 38.949,-1.164 40.022,-0.719 0.629,0.235 0.934,0.96 0.679,1.576 -0.235,0.629 -0.96,0.934 -1.576,0.679 -0.256,-0.096 -25.347,-9.912 -37.557,0.317 -0.411,0.352 -0.972,0.385 -1.413,0.121 -0.105,-0.063 -0.218,-0.159 -0.298,-0.264 -0.431,-0.516 -0.373,-1.279 0.143,-1.71 z m -1.134,-12.453 c 6.632,-6.68 19.784,-6.653 20.354,-6.653 0.646,0.017 1.207,0.553 1.199,1.232 -0.009,0.679 -0.553,1.207 -1.245,1.219 -0.109,-0.008 -12.657,-0.044 -18.564,5.903 -0.394,0.419 -1.014,0.503 -1.496,0.214 -0.084,-0.05 -0.155,-0.122 -0.226,-0.193 -0.491,-0.464 -0.475,-1.252 -0.022,-1.722 z m -5.664,-18.392 c 0.675,0.063 1.178,0.65 1.115,1.325 -0.05,0.654 -0.637,1.157 -1.304,1.127 -0.163,-0.013 -16.727,-1.147 -21.344,15.094 -0.193,0.654 -0.88,1.039 -1.513,0.859 -0.096,-0.029 -0.201,-0.092 -0.285,-0.143 -0.461,-0.277 -0.704,-0.822 -0.54,-1.379 5.137,-18.151 23.674,-16.887 23.871,-16.883 z m -26.89,-1.403 c 0.545,-0.386 1.291,-0.251 1.676,0.294 0.407,0.557 0.272,1.304 -0.285,1.71 -0.046,0.029 -5.386,3.893 -8.577,9.731 -0.31,0.612 -1.06,0.817 -1.639,0.499 l -0.063,-0.038 c -0.545,-0.327 -0.742,-1.044 -0.457,-1.614 3.472,-6.354 9.101,-10.415 9.345,-10.582 z m -84.396,-19.757 c 0.654,-0.235 1.362,0.105 1.576,0.746 0.226,0.62 -0.113,1.329 -0.734,1.555 -0.046,0.029 -4.875,1.806 -6.602,8.293 -0.18,0.633 -0.847,1.031 -1.501,0.838 -0.109,-0.008 -0.214,-0.071 -0.319,-0.134 -0.44,-0.264 -0.683,-0.809 -0.553,-1.358 2.072,-7.678 7.907,-9.848 8.133,-9.94 z"
   id="path6" />
		</g>
		<g
   id="g7">
			<path
   style="fill:#42373b"
   d="m 36.181,397.811 c 0.021,0.44 0.243,0.83 0.578,1.031 0.189,0.113 0.436,0.176 0.666,0.172 0,0 0.055,0.004 0.176,-0.008 l 0.034,-0.008 c 2.728,0.013 33.039,0.847 67.541,31.218 0.494,0.411 0.976,0.843 1.479,1.287 0.503,0.444 1.261,0.415 1.718,-0.109 0.465,-0.49 0.415,-1.262 -0.088,-1.706 -0.184,-0.168 -0.369,-0.335 -0.545,-0.47 -28.572,-25.529 -54.012,-31.107 -64.859,-32.315 -3.261,-0.361 -5.214,-0.336 -5.532,-0.328 -0.657,0.004 -1.193,0.565 -1.168,1.236 z"
   id="path7" />
		</g>
		<g
   id="g8">
			<path
   style="fill:#42373b"
   d="m 88.674,385.48 c 0.184,0.738 4.93,18.094 27.418,35.382 0.029,0.046 0.071,0.071 0.113,0.096 0.524,0.314 1.224,0.193 1.614,-0.314 0.402,-0.528 0.298,-1.303 -0.23,-1.706 -21.834,-16.81 -26.513,-33.898 -26.555,-34.066 -0.18,-0.65 -0.851,-1.052 -1.5,-0.872 -0.651,0.18 -1.041,0.83 -0.86,1.48 z"
   id="path8" />
		</g>
		<g
   id="g9">
			<path
   style="fill:#42373b"
   d="m 114.236,382.068 c -0.071,0.214 -7.418,22.284 13.683,36.658 l 0.063,0.038 c 0.545,0.327 1.27,0.164 1.639,-0.356 0.373,-0.574 0.235,-1.341 -0.318,-1.702 -19.58,-13.348 -12.82,-33.632 -12.749,-33.846 0.214,-0.641 -0.126,-1.358 -0.758,-1.538 -0.629,-0.235 -1.346,0.104 -1.56,0.746 z"
   id="path9" />
		</g>
		<g
   id="g10">
			<path
   style="fill:#42373b"
   d="m 137.161,420.71 c 0.071,0.356 0.281,0.625 0.574,0.801 0.251,0.151 0.553,0.218 0.855,0.143 0.666,-0.113 1.09,-0.771 0.964,-1.417 -4.85,-23.975 10.283,-40.402 10.438,-40.565 0.444,-0.503 0.415,-1.262 -0.075,-1.727 -0.469,-0.453 -1.249,-0.436 -1.714,0.054 -0.659,0.716 -16.127,17.512 -11.042,42.711 z"
   id="path10" />
		</g>
		<g
   id="g11">
			<path
   style="fill:#42373b"
   d="m 162.576,422.91 c -0.218,0.553 0.008,1.173 0.511,1.475 0.063,0.038 0.105,0.063 0.18,0.08 0.637,0.268 1.341,-0.05 1.589,-0.7 14.855,-38.57 34.672,-40.813 34.881,-40.83 0.675,-0.08 1.169,-0.666 1.09,-1.341 -0.059,-0.662 -0.645,-1.157 -1.308,-1.098 -0.871,0.075 -21.539,2.406 -36.943,42.414 z"
   id="path11" />
		</g>
		<g
   id="g12">
			<path
   style="fill:#42373b"
   d="m 184.719,420.78 c -0.319,0.578 -0.134,1.316 0.431,1.656 l 0.021,0.013 c 0.599,0.331 1.35,0.126 1.668,-0.452 10.959,-19.161 25.381,-20.537 25.536,-20.558 0.662,-0.059 1.157,-0.645 1.098,-1.308 -0.046,-0.683 -0.633,-1.178 -1.316,-1.132 -0.628,0.049 -15.847,1.518 -27.438,21.781 z"
   id="path12" />
		</g>
		<g
   id="g13">
			<path
   style="fill:#42373b"
   d="m 200.132,433.28 c -0.373,0.574 -0.201,1.333 0.364,1.672 0.021,0.013 0.021,0.013 0.042,0.025 0.566,0.34 1.291,0.176 1.651,-0.377 9.478,-14.89 27.25,-20.328 27.43,-20.39 0.65,-0.18 1.01,-0.876 0.817,-1.505 -0.201,-0.662 -0.863,-1.031 -1.525,-0.83 -0.762,0.227 -18.801,5.731 -28.779,21.405 z"
   id="path13" />
		</g>
		<g
   id="g14">
			<path
   style="fill:#42373b"
   d="m 269.173,413.18 c 0.101,0.26 0.293,0.461 0.503,0.587 0.314,0.189 0.704,0.252 1.077,0.105 22.076,-8.526 47.191,14.5 47.447,14.739 0.49,0.465 1.27,0.449 1.714,-0.054 0.465,-0.49 0.449,-1.27 -0.054,-1.714 -1.073,-1.014 -26.473,-24.325 -49.995,-15.242 -0.621,0.226 -0.939,0.947 -0.692,1.579 z"
   id="path14" />
		</g>
		<g
   id="g15">
			<path
   style="fill:#42373b"
   d="m 265.8,403.461 c 0.08,0.105 0.193,0.201 0.298,0.264 0.44,0.264 1.002,0.231 1.413,-0.121 12.211,-10.229 37.302,-0.414 37.557,-0.317 0.616,0.256 1.341,-0.05 1.576,-0.679 0.256,-0.616 -0.05,-1.341 -0.679,-1.576 -1.073,-0.444 -26.697,-10.465 -40.022,0.719 -0.516,0.431 -0.574,1.194 -0.143,1.71 z"
   id="path15" />
		</g>
		<g
   id="g16">
			<path
   style="fill:#42373b"
   d="m 264.83,391.021 c 0.071,0.071 0.143,0.143 0.226,0.193 0.482,0.289 1.102,0.206 1.496,-0.214 5.906,-5.947 18.455,-5.911 18.564,-5.903 0.692,-0.012 1.237,-0.54 1.245,-1.219 0.008,-0.679 -0.553,-1.216 -1.199,-1.232 -0.57,0 -13.722,-0.027 -20.354,6.653 -0.452,0.469 -0.468,1.257 0.022,1.722 z"
   id="path16" />
		</g>
		<g
   id="g17">
			<path
   style="fill:#42373b"
   d="m 235.274,387.789 c -0.164,0.557 0.079,1.102 0.54,1.379 0.084,0.05 0.189,0.113 0.285,0.143 0.633,0.18 1.32,-0.205 1.513,-0.859 4.617,-16.24 21.18,-15.106 21.344,-15.094 0.666,0.03 1.253,-0.473 1.304,-1.127 0.063,-0.675 -0.44,-1.262 -1.115,-1.325 -0.197,-0.004 -18.734,-1.268 -23.871,16.883 z"
   id="path17" />
		</g>
		<g
   id="g18">
			<path
   style="fill:#42373b"
   d="m 222.911,380.084 c -0.285,0.57 -0.088,1.287 0.457,1.614 l 0.063,0.038 c 0.578,0.319 1.329,0.113 1.639,-0.499 3.19,-5.838 8.531,-9.701 8.577,-9.731 0.557,-0.406 0.692,-1.153 0.285,-1.71 -0.386,-0.545 -1.131,-0.679 -1.676,-0.294 -0.245,0.168 -5.874,4.229 -9.345,10.582 z"
   id="path18" />
		</g>
		<g
   id="g19">
			<path
   style="fill:#42373b"
   d="m 139.726,359.686 c -0.13,0.549 0.113,1.094 0.553,1.358 0.105,0.063 0.21,0.126 0.319,0.134 0.654,0.193 1.32,-0.205 1.501,-0.838 1.728,-6.488 6.556,-8.264 6.602,-8.293 0.62,-0.226 0.96,-0.935 0.734,-1.555 -0.214,-0.641 -0.922,-0.981 -1.576,-0.746 -0.226,0.092 -6.061,2.262 -8.133,9.94 z"
   id="path19" />
		</g>
		<g
   id="g21">
			<path
   style="fill:#808274"
   d="m 42.883,396.902 c 10.847,1.209 36.287,6.787 64.859,32.315 38.272,-13.997 84.464,10.05 88.483,12.235 37.126,1.59 65.278,-1.009 74.7,-2.081 -15.096,-7.094 -28.673,-19.803 -39.812,-32.446 -0.05,-0.059 -0.113,-0.096 -0.164,-0.155 -0.05,-0.059 -0.101,-0.117 -0.138,-0.197 -7.711,-8.761 -14.252,-17.475 -19.343,-24.236 -2.854,-3.793 -5.309,-7.063 -7.208,-9.314 -9.89,-11.779 -36.253,-5.798 -55.521,-1.429 -3.202,0.729 -6.216,1.428 -8.944,1.985 -10.948,2.236 -15.801,-1.93 -19.338,-4.965 -3.013,-2.578 -4.832,-4.154 -9.254,-1.535 -9.993,5.917 -24.684,12.918 -38.108,12.727 -6.756,-0.093 -10.894,6.373 -13.921,11.084 -2.293,3.583 -4.276,6.697 -6.891,5.355 -1.856,-0.943 -5.423,-0.604 -9.4,0.657 z m 157.249,36.378 c 9.977,-15.674 28.017,-21.178 28.78,-21.405 0.662,-0.201 1.324,0.168 1.525,0.83 0.193,0.629 -0.168,1.324 -0.817,1.505 -0.18,0.063 -17.952,5.5 -27.43,20.39 -0.361,0.553 -1.086,0.717 -1.651,0.377 -0.021,-0.013 -0.021,-0.013 -0.042,-0.025 -0.566,-0.339 -0.738,-1.098 -0.365,-1.672 z m -15.413,-12.5 c 11.592,-20.263 26.81,-21.732 27.439,-21.782 0.683,-0.046 1.27,0.449 1.316,1.132 0.059,0.662 -0.436,1.249 -1.098,1.308 -0.155,0.021 -14.577,1.398 -25.536,20.558 -0.319,0.578 -1.069,0.784 -1.668,0.452 l -0.021,-0.013 c -0.567,-0.34 -0.751,-1.077 -0.432,-1.655 z m 14.8,-40.284 c 0.662,-0.058 1.249,0.436 1.308,1.098 0.08,0.675 -0.415,1.262 -1.09,1.341 -0.21,0.017 -20.026,2.26 -34.881,40.83 -0.247,0.65 -0.952,0.968 -1.589,0.7 -0.076,-0.017 -0.117,-0.042 -0.18,-0.08 -0.503,-0.302 -0.729,-0.922 -0.511,-1.475 15.404,-40.008 36.072,-42.339 36.943,-42.414 z m -62.358,40.214 c -5.085,-25.198 10.384,-41.994 11.042,-42.711 0.465,-0.49 1.245,-0.507 1.714,-0.054 0.49,0.465 0.52,1.224 0.075,1.727 -0.155,0.163 -15.288,16.591 -10.438,40.565 0.126,0.645 -0.298,1.303 -0.964,1.417 -0.302,0.075 -0.604,0.008 -0.855,-0.143 -0.293,-0.177 -0.503,-0.445 -0.574,-0.801 z m -22.925,-38.642 c 0.214,-0.641 0.931,-0.981 1.559,-0.746 0.633,0.18 0.972,0.897 0.758,1.538 -0.071,0.214 -6.831,20.498 12.749,33.846 0.553,0.361 0.691,1.128 0.318,1.702 -0.369,0.52 -1.094,0.683 -1.639,0.356 l -0.063,-0.038 C 106.819,404.351 114.165,382.281 114.236,382.068 Z M 89.533,384 c 0.65,-0.18 1.32,0.222 1.5,0.872 0.042,0.168 4.721,17.256 26.555,34.066 0.528,0.402 0.633,1.178 0.23,1.706 -0.39,0.507 -1.09,0.629 -1.614,0.314 -0.042,-0.025 -0.084,-0.05 -0.113,-0.096 -22.488,-17.288 -27.234,-34.644 -27.418,-35.382 -0.18,-0.65 0.21,-1.3 0.86,-1.48 z"
   id="path20" />
			<path
   style="fill:#42373b"
   d="m 230.812,406.574 c 0.038,0.08 0.088,0.138 0.138,0.197 0.05,0.059 0.113,0.096 0.164,0.155 4.497,4.095 9.106,7.717 13.775,10.862 1.894,1.308 3.776,2.494 5.683,3.639 32.207,19.33 65.711,19.117 77.635,18.293 2.854,-0.197 4.451,-0.435 4.552,-0.46 0.277,-0.033 0.528,-0.168 0.708,-0.373 0.239,-0.256 0.377,-0.629 0.319,-1.006 -0.113,-0.666 -0.725,-1.119 -1.4,-1.04 -0.034,0.008 -0.134,0.034 -0.344,0.05 -4.761,0.62 -57.588,6.337 -99.214,-31.729 -0.084,-0.05 -0.155,-0.122 -0.226,-0.193 -0.469,-0.453 -1.261,-0.415 -1.727,0.075 -0.386,0.453 -0.424,1.085 -0.063,1.53 z"
   id="path21" />
		</g>
		<g
   id="g22">
			<path
   style="fill:#42373b"
   d="m 35.19,384.789 c 0.071,0.356 0.289,0.658 0.561,0.822 0.252,0.151 0.566,0.197 0.876,0.155 0.658,-0.147 1.102,-0.792 0.956,-1.45 -0.842,-4.296 -0.502,-5.717 -0.33,-6.098 0.457,-0.096 0.834,-0.44 0.926,-0.926 0.172,-0.666 -0.26,-1.325 -0.918,-1.463 -0.453,-0.101 -1.127,-0.021 -1.685,0.528 -0.725,0.732 -1.576,2.388 -0.386,8.432 z"
   id="path22" />
		</g>
	</g>
	<path
   style="display:none;fill:#ece1cf"
   d="m 398.037,-46.772 c 6.209,18.634 12.466,37.501 13.95,57.086 1.484,19.585 -2.281,40.28 -14.363,55.766 -16.736,21.452 -45.605,28.94 -72.595,32.38 -26.99,3.44 -55.327,4.48 -79.089,17.734 -21.338,11.902 -36.355,32.225 -52.842,50.257 -47.463,51.91 -112.002,87.942 -181.095,101.109 -11.073,2.11 -24.145,3.06 -31.994,-5.03 -6.061,-6.247 -6.808,-15.774 -7.211,-24.469 -3.758,-80.935 -7.493,-162.43 3.793,-242.663 0.859,-6.105 2.041,-12.671 6.503,-16.925 4.993,-4.759 12.568,-5.222 19.462,-5.416 135.457,-3.81 270.914,-7.62 406.371,-11.431"
   clip-path="url(#SVGID_00000036937076629608534370000008528879834881578904_)"
   id="path23" />
	
		<path
   style="display:none;fill:none;stroke:#000000;stroke-miterlimit:10"
   d="m 394.51,-10 c -0.855,20.162 -2.403,41.33 -13.355,58.279 -13.028,20.161 -36.967,30.473 -60.366,35.829 -23.399,5.356 -47.753,6.945 -70.313,15.146 -32.432,11.789 -58.61,36.328 -80.915,62.658 -22.305,26.33 -41.798,55.128 -66.265,79.463 -34.054,33.871 -77.411,58.294 -124.027,69.866"
   clip-path="url(#SVGID_00000036937076629608534370000008528879834881578904_)"
   id="path24" />
	<path
   style="fill:#ffa500;fill-opacity:1"
   d="m 697.401,174.494 c -10.263,31.891 -12.953,65.713 -21.264,98.168 -8.311,32.455 -23.733,65.186 -51.969,83.217 -42.446,27.106 -98.986,13.149 -147.07,28.125 -24.008,7.478 -45.12,21.951 -65.824,36.222 -34.202,23.576 -68.403,47.151 -102.605,70.727 -7.64,5.266 -15.987,11.659 -17.033,20.879 -1.019,8.98 5.471,17.122 12.691,22.557 21.206,15.962 49.56,17.613 76.082,18.642 119.645,4.64 240.334,9.216 358.334,-11.09 18.352,-3.158 37.499,-7.339 51.56,-19.548 15.012,-13.034 21.837,-33.473 22.948,-53.323 1.111,-19.85 -2.805,-39.585 -5.915,-59.221 -13.22,-83.468 -12.068,-168.444 -12.071,-252.952 -10e-4,-13.691 -0.133,-27.867 -5.822,-40.32 -27.27,-59.699 -83.044,29.956 -92.042,57.917 z"
   clip-path="url(#SVGID_00000036937076629608534370000008528879834881578904_)"
   id="path25" />
	
		<path
   style="fill:none;stroke:#000000;stroke-miterlimit:10"
   d="m 759.802,109.958 c -20.816,14.941 -33.362,39.071 -40.281,63.742 -6.919,24.671 -8.915,50.409 -13.031,75.699 -8.96,55.054 -31.416,112.552 -79.155,141.399 -34.518,20.858 -76.559,23.435 -116.548,28.67 -33.168,4.342 -66.462,11.007 -96.622,25.476 -30.16,14.469 -57.185,37.454 -71.302,67.781"
   clip-path="url(#SVGID_00000036937076629608534370000008528879834881578904_)"
   id="path26" />
	<g
   clip-path="url(#SVGID_00000036937076629608534370000008528879834881578904_)"
   id="g48">
		<g
   id="g47">
			<g
   id="g46">
				<g
   id="g38">
					<path
   style="fill:#425134"
   d="m 525.268,148.042 c 0,0 -0.659,17.253 -8.012,26.633 -7.352,9.379 -23.349,20.535 -23.349,20.535 0,0 6.397,-16.661 7.433,-27.475 1.036,-10.815 23.928,-19.693 23.928,-19.693 z m 14.283,-35.79 c -11.392,9.668 -22.748,25.465 -22.748,25.465 0,0 15.847,-2.049 31.282,-7.875 15.434,-5.827 23.385,-27.332 23.667,-27.93 0,0 -20.809,0.672 -32.201,10.34 z m 15.529,25.306 c -9.22,16.231 -2.881,37.34 -2.497,38.595 0.384,1.255 -0.384,-1.255 4.079,-13.299 4.463,-12.044 18.16,-17.291 23.732,-26 5.573,-8.709 -1.929,-20.213 -1.929,-20.213 0,0 -14.165,4.686 -23.385,20.917 z m 4.018,-75.526 c -17.24,1.38 -24.253,4.869 -24.253,4.869 0,0 18.416,7.502 38.419,14.744 20.003,7.242 18.358,-4.268 18.358,-4.268 0,0 -15.284,-16.725 -32.524,-15.345 z m 54.966,27.757 c -0.302,-0.277 -14.754,10.244 -15.497,18.024 -0.743,7.78 5.826,21.777 3.826,26.362 -2.001,4.586 -3.693,5.414 -3.693,5.414 0,0 8.062,1.527 17.875,-18.238 9.813,-19.765 -0.24,-29.48 -2.511,-31.562 z m -6.658,-53.105 c -20.775,-2.158 -33.049,4.899 -33.049,4.899 0,0 0,0 3.895,-0.212 3.895,-0.212 13.634,7.181 33.763,14.845 20.129,7.664 20.316,-2.731 20.316,-2.731 0,0 -4.151,-14.643 -24.925,-16.801 z m 54.446,24.55 c -1.222,1.212 -19.596,9.132 -18.718,15.889 0.878,6.757 0.749,18.406 -2.286,23.804 -3.035,5.399 -6.075,7.705 -6.075,7.705 0,0 15.572,-0.947 23.987,-15.68 8.414,-14.733 3.092,-31.718 3.092,-31.718 z m -2.047,-43.576 c -10.805,-6.399 -29.593,0.675 -27.793,1.687 1.8,1.012 15.15,6.497 24.27,14.053 9.12,7.556 14.573,4.273 14.573,4.273 0,0 -0.245,-13.614 -11.05,-20.013 z"
   id="path27" />
					<g
   id="g37">
						<path
   style="fill:#425134"
   d="m 582.107,42.424 c -2.026,-1.009 -3.652,-1.754 -4.934,-2.148 -1.849,0.752 -2.816,1.308 -2.816,1.308 0,0 0,0 3.895,-0.212 0.929,-0.051 2.197,0.335 3.855,1.052 z"
   id="path28" />
						<path
   style="fill:#425134"
   d="m 629.337,52.073 c 0,0 -0.187,10.394 -20.316,2.731 -4.909,-1.869 -9.196,-3.721 -12.935,-5.452 4.392,2.114 9.655,4.476 15.928,6.864 20.129,7.663 20.316,-2.731 20.316,-2.731 0,0 -2.693,-9.469 -14.553,-14.299 9.329,5.052 11.56,12.887 11.56,12.887 z"
   id="path29" />
						<path
   style="fill:#425134"
   d="m 591.622,77.377 c 0,0 -7.487,-8.183 -17.887,-12.628 8.814,4.568 14.894,11.216 14.894,11.216 0,0 1.644,11.51 -18.358,4.268 -14.97,-5.42 -29.048,-10.984 -35.187,-13.442 -0.157,0.07 -0.239,0.11 -0.239,0.11 0,0 18.416,7.502 38.419,14.744 20.003,7.242 18.358,-4.268 18.358,-4.268 z"
   id="path30" />
						<path
   style="fill:#425134"
   d="m 633.891,20.254 c -0.531,-0.255 -1.032,-0.493 -1.496,-0.711 0.355,0.177 0.862,0.415 1.496,0.711 z"
   id="path31" />
						<path
   style="fill:#425134"
   d="m 522.062,149.421 c -0.524,5.268 -2.266,16.783 -7.799,23.841 -4.801,6.124 -13.284,13.003 -18.596,17.042 -1.018,2.972 -1.76,4.905 -1.76,4.905 0,0 15.997,-11.155 23.349,-20.535 7.352,-9.38 8.011,-26.633 8.011,-26.633 0,0 -1.266,0.494 -3.205,1.38 z"
   id="path32" />
						<path
   style="fill:#425134"
   d="m 655.767,91.54 c -5.216,9.132 -13.178,12.965 -18.48,14.562 -1.47,1.735 -2.513,2.531 -2.513,2.531 0,0 15.572,-0.947 23.987,-15.68 8.415,-14.733 3.092,-31.718 3.092,-31.718 -0.233,0.231 -1.09,0.706 -2.314,1.369 1.104,5.41 2.581,17.813 -3.772,28.936 z"
   id="path33" />
						<path
   style="fill:#425134"
   d="m 571.752,101.912 c 0,0 -1.415,0.047 -3.697,0.284 -2.269,5.287 -9.959,21.324 -22.963,26.234 -10.351,3.908 -20.88,6.114 -26.698,7.145 -1.015,1.343 -1.591,2.142 -1.591,2.142 0,0 15.847,-2.049 31.282,-7.875 15.434,-5.827 23.385,-27.332 23.667,-27.93 z"
   id="path34" />
						<path
   style="fill:#425134"
   d="m 667.862,36.259 c 0,0 -2.776,1.645 -7.661,-0.124 6.734,3.865 10.654,1.536 10.654,1.536 0,0 -0.245,-13.614 -11.05,-20.013 -0.898,-0.532 -1.855,-0.963 -2.846,-1.319 10.656,6.435 10.903,19.92 10.903,19.92 z"
   id="path35" />
						<path
   style="fill:#425134"
   d="m 578.464,116.641 c 0,0 -0.667,0.221 -1.804,0.731 1.86,3.735 4.843,11.657 0.74,18.069 -5.573,8.709 -19.27,13.956 -23.732,26 -1.23,3.32 -2.061,5.912 -2.63,7.904 0.649,3.827 1.418,6.395 1.544,6.807 0.384,1.255 -0.384,-1.255 4.079,-13.299 4.463,-12.044 18.16,-17.291 23.732,-26 5.573,-8.708 -1.929,-20.212 -1.929,-20.212 z"
   id="path36" />
						<path
   style="fill:#425134"
   d="m 614.064,89.789 c -0.047,-0.043 -0.436,0.175 -1.06,0.601 3.426,4.097 8.537,13.516 0.578,29.549 -4.678,9.422 -8.955,14 -12.154,16.217 -1.551,2.849 -2.728,3.433 -2.728,3.433 0,0 8.062,1.527 17.875,-18.238 9.813,-19.765 -0.24,-29.48 -2.511,-31.562 z"
   id="path37" />
					</g>
				</g>
				<g
   id="g39">
					<path
   style="fill:#425134"
   d="m 518.943,159.886 c 11.171,-16.207 25.325,-29.897 40.115,-42.771 13.554,-11.798 27.205,-23.801 41.986,-34.056 7.536,-5.229 15.459,-9.948 23.888,-13.596 8.545,-3.698 17.74,-5.692 26.145,-9.72 7.198,-3.449 13.706,-8.226 21.091,-11.299 8.152,-3.392 16.615,-2.157 24.984,-4.246 10.238,-2.556 19.73,-7.029 30.174,-9.068 10.319,-2.015 20.855,-2.674 31.348,-2.126 1.119,0.059 1.437,-1.68 0.302,-1.739 -17.865,-0.934 -35.576,1.713 -52.37,7.883 -4.689,1.723 -9.302,3.54 -14.298,4.156 -4.52,0.558 -9.098,0.289 -13.578,1.22 -7.725,1.606 -14.468,5.866 -21.21,9.749 -8.365,4.817 -17.074,7.567 -26.117,10.763 -8.357,2.953 -16.29,6.947 -23.819,11.61 -15.81,9.792 -29.892,22.197 -43.991,34.245 -16.863,14.41 -33.336,29.485 -45.99,47.845 -0.638,0.927 0.696,2.084 1.34,1.15 z"
   id="path38" />
				</g>
				<g
   id="g40">
					<path
   style="fill:#425134"
   d="m 575.29,124.692 c 6.326,-9.368 7.756,-20.542 11.152,-31.096 0.343,-1.066 -1.249,-1.833 -1.596,-0.753 -3.327,10.343 -4.696,21.521 -10.895,30.699 -0.629,0.931 0.704,2.09 1.339,1.15 z"
   id="path39" />
				</g>
				<g
   id="g41">
					<path
   style="fill:#425134"
   d="m 610.443,75.317 c -4.546,1.039 -9.147,1.699 -13.809,1.888 -2.203,0.089 -4.4,0.072 -6.601,-0.043 -1.961,-0.102 -5.447,0.157 -7.082,-1.104 -0.897,-0.692 -2.051,0.644 -1.151,1.339 3.041,2.347 9.048,1.66 12.75,1.626 5.572,-0.051 11.064,-0.806 16.488,-2.046 1.108,-0.251 0.501,-1.91 -0.595,-1.66 z"
   id="path40" />
				</g>
				<g
   id="g42">
					<path
   style="fill:#425134"
   d="m 613.628,97.411 c 1.054,-11.361 8.242,-20.034 14.379,-29.194 0.625,-0.934 -0.708,-2.093 -1.339,-1.151 -6.33,9.447 -13.692,18.326 -14.779,30.042 -0.105,1.123 1.634,1.438 1.739,0.303 z"
   id="path41" />
				</g>
				<g
   id="g43">
					<path
   style="fill:#425134"
   d="m 622.236,52.282 c 4.719,1.675 9.494,1.778 14.451,1.745 6.868,-0.046 12.74,1.466 19.419,2.635 1.117,0.196 1.424,-1.543 0.302,-1.739 -5.252,-0.92 -10.176,-2.522 -15.553,-2.656 -6.042,-0.151 -12.052,0.482 -17.866,-1.581 -1.06,-0.376 -1.824,1.216 -0.753,1.596 z"
   id="path42" />
				</g>
				<g
   id="g44">
					<path
   style="fill:#425134"
   d="m 659.341,71.007 c 1.411,-4.768 2.375,-9.743 5.415,-13.785 2.569,-3.416 5.559,-6.581 8.423,-9.748 0.764,-0.844 -0.578,-1.992 -1.339,-1.151 -3.232,3.573 -6.807,7.161 -9.476,11.185 -2.558,3.858 -3.469,8.821 -4.763,13.196 -0.32,1.087 1.421,1.383 1.74,0.303 z"
   id="path43" />
				</g>
				<g
   id="g45">
					<path
   style="fill:#425134"
   d="m 698.475,41.68 c -3.186,1.469 -6.904,0.331 -10.211,-0.185 -3.183,-0.497 -6.373,-0.959 -9.55,-1.491 -5.471,-0.915 -14.71,-5.135 -16.123,-11.294 -0.254,-1.106 -1.913,-0.499 -1.661,0.596 1.286,5.609 9.372,10.651 14.655,11.929 4.314,1.044 8.862,1.45 13.246,2.134 3.469,0.542 6.93,1.498 10.241,-0.029 1.024,-0.471 0.436,-2.136 -0.597,-1.66 z"
   id="path44" />
				</g>
			</g>
		</g>
	</g>
</g>
</svg>
