<svg xmlns="http://www.w3.org/2000/svg" xmlns:xlink="http://www.w3.org/1999/xlink" viewBox="0 0 803.15 526.05"><defs><style>.a{fill:none;}.b{clip-path:url(#a);}.c{fill:#fff;}.d{fill:#e8e100;}.e{fill:#42373b;}</style><clipPath id="a" transform="translate(53.15 26.05)"><rect class="a" width="750" height="500"/></clipPath></defs><title>Risorsa 4</title><g class="b"><rect class="c" x="53.15" y="26.05" width="750" height="500"/><path class="d" d="M321.52,27.45c-12.94,7.93-28.66,9.39-43.72,11.29-24.62,3.11-49.3,8-71.84,18.42-13.68,6.3-26.71,14.84-35.65,27-9.26,12.54-13.5,28-17.65,43-6.95,25.18-15.7,52.48-37.64,66.67-14.74,9.53-33.44,11.57-47.94,21.47-21.09,14.4-29.95,43-52.52,55-7.62,4-18.16,5.29-24-1.07-3.48-3.82-4.27-9.3-4.9-14.43l-6.57-53.33c-4.51-36.56-9-73.16-11.15-109.94-1.7-29.55-1.72-60,9-87.65C-18.71-7.48-11.81-18.81-.63-23.44,7.07-26.63,15.72-26.19,24-25.7c98.39,5.77,197.58,8.35,295.72,17.36C345.54-6,340.67,15.72,321.52,27.45Z" transform="translate(53.15 26.05)"/><path class="e" d="M-29.44,268.32a57.9,57.9,0,0,1-23.71-5l.4-.91a58.75,58.75,0,0,0,61.4-9c6.28-5.42,11.46-12.29,16.47-18.92,7-9.27,14.23-18.85,24.51-24.52,12-6.63,26.2-6.88,39.92-7.13,13.46-.24,27.37-.49,39.11-6.78,17.8-9.55,26-30.63,30.66-45.66,1-3.13,1.9-6.36,2.81-9.48,4.37-15,8.89-30.59,18.68-42.94,13.7-17.29,35.24-25.38,52.47-30.49,4.9-1.45,9.92-2.81,14.78-4.12,14.62-3.93,29.73-8,43.21-15.24,12.05-6.48,20.65-14.48,25.57-23.78,5.89-11.17,5.82-24.35-.18-33.56l.84-.55c6.2,9.52,6.28,23.09.22,34.57-5,9.49-13.75,17.63-26,24.2C278.16,56.32,263,60.41,248.32,64.36c-4.85,1.31-9.87,2.66-14.75,4.11-17.09,5.07-38.45,13.08-52,30.15-9.67,12.2-14.16,27.65-18.5,42.6-.91,3.12-1.85,6.35-2.82,9.5-4.69,15.19-13,36.51-31.14,46.24-11.95,6.41-26,6.66-39.56,6.9s-27.66.5-39.45,7c-10.1,5.57-17.27,15.06-24.2,24.24-5,6.68-10.26,13.58-16.62,19.08A59.54,59.54,0,0,1-29.44,268.32Z" transform="translate(53.15 26.05)"/></g></svg>